<svg width="0" height="0" class="hidden"><symbol xmlns="http://www.w3.org/2000/svg" viewBox="0 0 512 512" id="menu-outline"><path fill="none" stroke="currentColor" stroke-linecap="round" stroke-miterlimit="10" stroke-width="32" d="M80 160h352M80 256h352M80 352h352"></path></symbol><symbol xmlns="http://www.w3.org/2000/svg" viewBox="0 0 512 512" id="play-skip-forward-outline"><path d="M112 111v290c0 17.44 17 28.52 31 20.16l247.9-148.37c12.12-7.25 12.12-26.33 0-33.58L143 90.84c-14-8.36-31 2.72-31 20.16z" fill="none" stroke="currentColor" stroke-miterlimit="10" stroke-width="32"></path><path fill="none" stroke="currentColor" stroke-linecap="round" stroke-miterlimit="10" stroke-width="32" d="M400 80v352"></path></symbol><symbol xmlns="http://www.w3.org/2000/svg" preserveAspectRatio="xMinYMin meet" viewBox="0 0 256 255" id="python-5"><defs><linearGradient x1="12.959%" y1="12.039%" x2="79.639%" y2="78.201%" id="a"><stop stop-color="#387EB8" offset="0%"></stop><stop stop-color="#366994" offset="100%"></stop></linearGradient><linearGradient x1="19.128%" y1="20.579%" x2="90.742%" y2="88.429%" id="b"><stop stop-color="#FFE052" offset="0%"></stop><stop stop-color="#FFC331" offset="100%"></stop></linearGradient></defs><path d="M126.916.072c-64.832 0-60.784 28.115-60.784 28.115l.072 29.128h61.868v8.745H41.631S.145 61.355.145 126.77c0 65.417 36.21 63.097 36.21 63.097h21.61v-30.356s-1.165-36.21 35.632-36.21h61.362s34.475.557 34.475-33.319V33.97S194.67.072 126.916.072zM92.802 19.66a11.12 11.12 0 0 1 11.13 11.13 11.12 11.12 0 0 1-11.13 11.13 11.12 11.12 0 0 1-11.13-11.13 11.12 11.12 0 0 1 11.13-11.13z" fill="url(#a)"></path><path d="M128.757 254.126c64.832 0 60.784-28.115 60.784-28.115l-.072-29.127H127.6v-8.745h86.441s41.486 4.705 41.486-60.712c0-65.416-36.21-63.096-36.21-63.096h-21.61v30.355s1.165 36.21-35.632 36.21h-61.362s-34.475-.557-34.475 33.32v56.013s-5.235 33.897 62.518 33.897zm34.114-19.586a11.12 11.12 0 0 1-11.13-11.13 11.12 11.12 0 0 1 11.13-11.131 11.12 11.12 0 0 1 11.13 11.13 11.12 11.12 0 0 1-11.13 11.13z" fill="url(#b)"></path></symbol><symbol xmlns="http://www.w3.org/2000/svg" viewBox="0 0 32 32" id="python-icon"><defs><linearGradient id="A" x1="811.527" y1="574.895" x2="665.255" y2="573.732" gradientUnits="userSpaceOnUse"><stop offset="0" stop-color="#366a96"></stop><stop offset="1" stop-color="#3679b0"></stop></linearGradient><linearGradient id="B" x1="862.824" y1="642.176" x2="573.276" y2="642.176" gradientUnits="userSpaceOnUse"><stop offset="0" stop-color="#ffc836"></stop><stop offset="1" stop-color="#ffe873"></stop></linearGradient></defs><g transform="matrix(.1617 0 0 .158089 -107.53764 -81.66187)"><path d="M716.255 544.487c0-13.623 3.653-21.034 23.822-24.563 13.693-2.4 31.25-2.7 47.627 0 12.935 2.135 23.822 11.77 23.822 24.563v44.945c0 13.182-10.57 23.98-23.822 23.98h-47.627c-16.164 0-29.787 13.782-29.787 29.363v21.564h-16.376c-13.852 0-21.917-9.988-25.305-23.964-4.57-18.776-4.376-29.963 0-47.945 3.794-15.687 15.917-23.964 29.77-23.964h65.52v-6h-47.645v-17.98z" fill="url(#A)"></path><path d="M811.527 688.32c0 13.623-11.823 20.523-23.822 23.964-18.052 5.188-32.54 4.394-47.627 0-12.6-3.67-23.822-11.17-23.822-23.964v-44.945c0-12.935 10.782-23.98 23.822-23.98h47.627c15.864 0 29.787-13.71 29.787-29.963v-20.964h17.858c13.87 0 20.4 10.305 23.822 23.964 4.764 18.97 4.976 33.157 0 47.945-4.817 14.364-9.97 23.964-23.822 23.964H763.9v6h47.627v17.98z" fill="url(#B)"></path><path d="M728.166 541.505c0-4.976 3.988-9 8.93-9 4.923 0 8.93 4.023 8.93 9 0 4.96-4.006 8.982-8.93 8.982-4.94 0-8.93-4.023-8.93-8.982zm53.59 149.798c0-4.96 4.006-8.982 8.93-8.982 4.94 0 8.93 4.023 8.93 8.982 0 4.976-3.988 9-8.93 9-4.923 0-8.93-4.023-8.93-9z" fill="#fff"></path></g></symbol><symbol xmlns="http://www.w3.org/2000/svg" viewBox="0 0 512 512" id="ribbon-outline"><circle cx="256" cy="160" r="128" fill="none" stroke="currentColor" stroke-linecap="round" stroke-linejoin="round" stroke-width="32"></circle><path d="M143.65 227.82L48 400l86.86-.42a16 16 0 0113.82 7.8L192 480l88.33-194.32" fill="none" stroke="currentColor" stroke-linecap="round" stroke-linejoin="round" stroke-width="32"></path><path d="M366.54 224L464 400l-86.86-.42a16 16 0 00-13.82 7.8L320 480l-64-140.8" fill="none" stroke="currentColor" stroke-linecap="round" stroke-linejoin="round" stroke-width="32"></path><circle cx="256" cy="160" r="64" fill="none" stroke="currentColor" stroke-linecap="round" stroke-linejoin="round" stroke-width="32"></circle></symbol><symbol xmlns="http://www.w3.org/2000/svg" viewBox="0 0 512 512" id="time-outline"><path d="M256 64C150 64 64 150 64 256s86 192 192 192 192-86 192-192S362 64 256 64z" fill="none" stroke="currentColor" stroke-miterlimit="10" stroke-width="32"></path><path fill="none" stroke="currentColor" stroke-linecap="round" stroke-linejoin="round" stroke-width="32" d="M256 128v144h96"></path></symbol><symbol xmlns="http://www.w3.org/2000/svg" viewBox="0 0 512 512" id="today-outline"><rect fill="none" stroke="currentColor" stroke-linejoin="round" stroke-width="32" x="48" y="80" width="416" height="384" rx="48"></rect><path fill="none" stroke="currentColor" stroke-linejoin="round" stroke-width="32" stroke-linecap="round" d="M128 48v32M384 48v32"></path><rect fill="none" stroke="currentColor" stroke-linejoin="round" stroke-width="32" stroke-linecap="round" x="112" y="224" width="96" height="96" rx="13"></rect><path fill="none" stroke="currentColor" stroke-linejoin="round" stroke-width="32" stroke-linecap="round" d="M464 160H48"></path></symbol><symbol xmlns="http://www.w3.org/2000/svg" viewBox="0 0 512 512" id="videocam-outline"><path d="M374.79 308.78L457.5 367a16 16 0 0022.5-14.62V159.62A16 16 0 00457.5 145l-82.71 58.22A16 16 0 00368 216.3v79.4a16 16 0 006.79 13.08z" fill="none" stroke="currentColor" stroke-linecap="round" stroke-linejoin="round" stroke-width="32"></path><path d="M268 384H84a52.15 52.15 0 01-52-52V180a52.15 52.15 0 0152-52h184.48A51.68 51.68 0 01320 179.52V332a52.15 52.15 0 01-52 52z" fill="none" stroke="currentColor" stroke-miterlimit="10" stroke-width="32"></path></symbol><symbol xmlns="http://www.w3.org/2000/svg" viewBox="0 0 512 512" id="chevron-down-outline"><path fill="none" stroke="currentColor" stroke-linecap="round" stroke-linejoin="round" stroke-width="48" d="M112 184l144 144 144-144"></path></symbol><symbol xmlns="http://www.w3.org/2000/svg" viewBox="0 0 512 512" id="ellipsis-horizontal-outline"><circle cx="256" cy="256" r="32" fill="none" stroke="currentColor" stroke-miterlimit="10" stroke-width="32"></circle><circle cx="416" cy="256" r="32" fill="none" stroke="currentColor" stroke-miterlimit="10" stroke-width="32"></circle><circle cx="96" cy="256" r="32" fill="none" stroke="currentColor" stroke-miterlimit="10" stroke-width="32"></circle></symbol><symbol xmlns="http://www.w3.org/2000/svg" viewBox="0 0 512 512" id="eye-outline"><path d="M255.66 112c-77.94 0-157.89 45.11-220.83 135.33a16 16 0 00-.27 17.77C82.92 340.8 161.8 400 255.66 400c92.84 0 173.34-59.38 221.79-135.25a16.14 16.14 0 000-17.47C428.89 172.28 347.8 112 255.66 112z" fill="none" stroke="currentColor" stroke-linecap="round" stroke-linejoin="round" stroke-width="32"></path><circle cx="256" cy="256" r="80" fill="none" stroke="currentColor" stroke-miterlimit="10" stroke-width="32"></circle></symbol><symbol xmlns="http://www.w3.org/2000/svg" viewBox="0 0 512 512" id="film-outline"><rect x="48" y="96" width="416" height="320" rx="28" ry="28" fill="none" stroke="currentColor" stroke-linejoin="round" stroke-width="32"></rect><rect x="384" y="336" width="80" height="80" rx="28" ry="28" fill="none" stroke="currentColor" stroke-linejoin="round" stroke-width="32"></rect><rect x="384" y="256" width="80" height="80" rx="28" ry="28" fill="none" stroke="currentColor" stroke-linejoin="round" stroke-width="32"></rect><rect x="384" y="176" width="80" height="80" rx="28" ry="28" fill="none" stroke="currentColor" stroke-linejoin="round" stroke-width="32"></rect><rect x="384" y="96" width="80" height="80" rx="28" ry="28" fill="none" stroke="currentColor" stroke-linejoin="round" stroke-width="32"></rect><rect x="48" y="336" width="80" height="80" rx="28" ry="28" fill="none" stroke="currentColor" stroke-linejoin="round" stroke-width="32"></rect><rect x="48" y="256" width="80" height="80" rx="28" ry="28" fill="none" stroke="currentColor" stroke-linejoin="round" stroke-width="32"></rect><rect x="48" y="176" width="80" height="80" rx="28" ry="28" fill="none" stroke="currentColor" stroke-linejoin="round" stroke-width="32"></rect><rect x="48" y="96" width="80" height="80" rx="28" ry="28" fill="none" stroke="currentColor" stroke-linejoin="round" stroke-width="32"></rect><rect x="128" y="96" width="256" height="160" rx="28" ry="28" fill="none" stroke="currentColor" stroke-linejoin="round" stroke-width="32"></rect><rect x="128" y="256" width="256" height="160" rx="28" ry="28" fill="none" stroke="currentColor" stroke-linejoin="round" stroke-width="32"></rect></symbol><symbol xmlns="http://www.w3.org/2000/svg" viewBox="0 0 512 512" id="image-outline"><rect x="48" y="80" width="416" height="352" rx="48" ry="48" fill="none" stroke="currentColor" stroke-linejoin="round" stroke-width="32"></rect><circle cx="336" cy="176" r="32" fill="none" stroke="currentColor" stroke-miterlimit="10" stroke-width="32"></circle><path d="M304 335.79l-90.66-90.49a32 32 0 00-43.87-1.3L48 352M224 432l123.34-123.34a32 32 0 0143.11-2L464 368" fill="none" stroke="currentColor" stroke-linecap="round" stroke-linejoin="round" stroke-width="32"></path></symbol><symbol xmlns="http://www.w3.org/2000/svg" viewBox="0 0 512 512" id="infinite-outline"><path d="M256 256s-48-96-126-96c-54.12 0-98 43-98 96s43.88 96 98 96c37.51 0 71-22.41 94-48M256 256s48 96 126 96c54.12 0 98-43 98-96s-43.88-96-98-96c-37.51 0-71 22.41-94 48" fill="none" stroke="currentColor" stroke-linecap="round" stroke-miterlimit="10" stroke-width="32"></path></symbol><symbol xmlns="http://www.w3.org/2000/svg" viewBox="0 0 512 512" id="logo-apple"><path d="M349.13 136.86c-40.32 0-57.36 19.24-85.44 19.24-28.79 0-50.75-19.1-85.69-19.1-34.2 0-70.67 20.88-93.83 56.45-32.52 50.16-27 144.63 25.67 225.11 18.84 28.81 44 61.12 77 61.47h.6c28.68 0 37.2-18.78 76.67-19h.6c38.88 0 46.68 18.89 75.24 18.89h.6c33-.35 59.51-36.15 78.35-64.85 13.56-20.64 18.6-31 29-54.35-76.19-28.92-88.43-136.93-13.08-178.34-23-28.8-55.32-45.48-85.79-45.48z"></path><path d="M340.25 32c-24 1.63-52 16.91-68.4 36.86-14.88 18.08-27.12 44.9-22.32 70.91h1.92c25.56 0 51.72-15.39 67-35.11 14.72-18.77 25.88-45.37 21.8-72.66z"></path></symbol><symbol xmlns="http://www.w3.org/2000/svg" viewBox="0 0 512 512" id="logo-facebook"><path d="M480 257.35c0-123.7-100.3-224-224-224s-224 100.3-224 224c0 111.8 81.9 204.47 189 221.29V322.12h-56.89v-64.77H221V208c0-56.13 33.45-87.16 84.61-87.16 24.51 0 50.15 4.38 50.15 4.38v55.13H327.5c-27.81 0-36.51 17.26-36.51 35v42h62.12l-9.92 64.77H291v156.54c107.1-16.81 189-109.48 189-221.31z" fill-rule="evenodd"></path></symbol><symbol xmlns="http://www.w3.org/2000/svg" viewBox="0 0 512 512" id="logo-google-playstore"><path d="M48 59.49v393a4.33 4.33 0 007.37 3.07L260 256 55.37 56.42A4.33 4.33 0 0048 59.49zM345.8 174L89.22 32.64l-.16-.09c-4.42-2.4-8.62 3.58-5 7.06l201.13 192.32zM84.08 472.39c-3.64 3.48.56 9.46 5 7.06l.16-.09L345.8 338l-60.61-57.95zM449.38 231l-71.65-39.46L310.36 256l67.37 64.43L449.38 281c19.49-10.77 19.49-39.23 0-50z"></path></symbol><symbol xmlns="http://www.w3.org/2000/svg" viewBox="0 0 512 512" id="logo-instagram"><path d="M349.33 69.33a93.62 93.62 0 0193.34 93.34v186.66a93.62 93.62 0 01-93.34 93.34H162.67a93.62 93.62 0 01-93.34-93.34V162.67a93.62 93.62 0 0193.34-93.34h186.66m0-37.33H162.67C90.8 32 32 90.8 32 162.67v186.66C32 421.2 90.8 480 162.67 480h186.66C421.2 480 480 421.2 480 349.33V162.67C480 90.8 421.2 32 349.33 32z"></path><path d="M377.33 162.67a28 28 0 1128-28 27.94 27.94 0 01-28 28zM256 181.33A74.67 74.67 0 11181.33 256 74.75 74.75 0 01256 181.33m0-37.33a112 112 0 10112 112 112 112 0 00-112-112z"></path></symbol><symbol xmlns="http://www.w3.org/2000/svg" viewBox="0 0 512 512" id="logo-linkedin"><path d="M444.17 32H70.28C49.85 32 32 46.7 32 66.89v374.72C32 461.91 49.85 480 70.28 480h373.78c20.54 0 35.94-18.21 35.94-38.39V66.89C480.12 46.7 464.6 32 444.17 32zm-273.3 373.43h-64.18V205.88h64.18zM141 175.54h-.46c-20.54 0-33.84-15.29-33.84-34.43 0-19.49 13.65-34.42 34.65-34.42s33.85 14.82 34.31 34.42c-.01 19.14-13.31 34.43-34.66 34.43zm264.43 229.89h-64.18V296.32c0-26.14-9.34-44-32.56-44-17.74 0-28.24 12-32.91 23.69-1.75 4.2-2.22 9.92-2.22 15.76v113.66h-64.18V205.88h64.18v27.77c9.34-13.3 23.93-32.44 57.88-32.44 42.13 0 74 27.77 74 87.64z"></path></symbol><symbol xmlns="http://www.w3.org/2000/svg" viewBox="0 0 512 512" id="logo-twitter"><path d="M496 109.5a201.8 201.8 0 01-56.55 15.3 97.51 97.51 0 0043.33-53.6 197.74 197.74 0 01-62.56 23.5A99.14 99.14 0 00348.31 64c-54.42 0-98.46 43.4-98.46 96.9a93.21 93.21 0 002.54 22.1 280.7 280.7 0 01-203-101.3A95.69 95.69 0 0036 130.4c0 33.6 17.53 63.3 44 80.7A97.5 97.5 0 0135.22 199v1.2c0 47 34 86.1 79 95a100.76 100.76 0 01-25.94 3.4 94.38 94.38 0 01-18.51-1.8c12.51 38.5 48.92 66.5 92.05 67.3A199.59 199.59 0 0139.5 405.6a203 203 0 01-23.5-1.4A278.68 278.68 0 00166.74 448c181.36 0 280.44-147.7 280.44-275.8 0-4.2-.11-8.4-.31-12.5A198.48 198.48 0 00496 109.5z"></path></symbol><symbol xmlns="http://www.w3.org/2000/svg" viewBox="0 0 512 512" id="medal-outline"><circle cx="256" cy="352" r="112" fill="none" stroke="currentColor" stroke-linecap="round" stroke-linejoin="round" stroke-width="32"></circle><circle cx="256" cy="352" r="48" fill="none" stroke="currentColor" stroke-linecap="round" stroke-linejoin="round" stroke-width="32"></circle><path d="M147 323L41.84 159.32a32 32 0 01-1.7-31.61l31-62A32 32 0 0199.78 48h312.44a32 32 0 0128.62 17.69l31 62a32 32 0 01-1.7 31.61L365 323M371 144H37M428.74 52.6L305 250M140.55 144L207 250" fill="none" stroke="currentColor" stroke-linecap="round" stroke-linejoin="round" stroke-width="32"></path></symbol><symbol xmlns="http://www.w3.org/2000/svg" viewBox="0 0 512 512" id="arrow-back-outline"><path fill="none" stroke="currentColor" stroke-linecap="round" stroke-linejoin="round" stroke-width="48" d="M244 400L100 256l144-144M120 256h292"></path></symbol></svg>